<svg width="15" height="16" viewBox="0 0 15 16" fill="none" xmlns="http://www.w3.org/2000/svg">
<path d="M10.1659 1.16356C9.47091 0.413212 8.5002 0 7.42878 0C6.35164 0 5.37772 0.410712 4.68593 1.15642C3.98665 1.91035 3.64594 2.93498 3.72594 4.04141C3.88451 6.22425 5.54557 7.99995 7.42878 7.99995C9.31198 7.99995 10.9702 6.22461 11.1313 4.04212C11.2123 2.9457 10.8695 1.9232 10.1659 1.16356Z" fill="black"/>
<path d="M13.7144 15.9999H1.14305C0.978507 16.0021 0.815552 15.9675 0.666045 15.8987C0.516537 15.83 0.384239 15.7288 0.278774 15.6024C0.0466326 15.3249 -0.0469383 14.946 0.022347 14.5628C0.323774 12.8907 1.26448 11.486 2.74305 10.5C4.05661 9.62461 5.72053 9.14282 7.42873 9.14282C9.13694 9.14282 10.8009 9.62496 12.1144 10.5C13.593 11.4857 14.5337 12.8903 14.8351 14.5624C14.9044 14.9456 14.8108 15.3246 14.5787 15.6021C14.4733 15.7285 14.341 15.8298 14.1915 15.8986C14.042 15.9674 13.879 16.002 13.7144 15.9999Z" fill="black"/>
</svg>
